<mxfile host="app.diagrams.net" modified="2024-04-16T02:27:17.460Z" agent="Mozilla/5.0 (Windows NT 10.0; Win64; x64) AppleWebKit/537.36 (KHTML, like Gecko) Chrome/123.0.0.0 Safari/537.36" version="24.2.5" etag="W6EcfWEYSzfHts-LEB3D" type="github">
  <diagram name="Page-1" id="SmaVa26SamMBiCB6yi2X">
    <mxGraphModel>
      <root>
        <mxCell id="0" />
        <mxCell id="1" parent="0" />
      </root>
    </mxGraphModel>
  </diagram>
</mxfile>
